<svg xmlns="http://www.w3.org/2000/svg" width="45" height="38" viewBox="0 0 45 38">
  <metadata><?xpacket begin="﻿" id="W5M0MpCehiHzreSzNTczkc9d"?>
<x:xmpmeta xmlns:x="adobe:ns:meta/" x:xmptk="Adobe XMP Core 5.6-c138 79.159824, 2016/09/14-01:09:01        ">
   <rdf:RDF xmlns:rdf="http://www.w3.org/1999/02/22-rdf-syntax-ns#">
      <rdf:Description rdf:about=""/>
   </rdf:RDF>
</x:xmpmeta>
                                                                                                    
                                                                                                    
                                                                                                    
                                                                                                    
                                                                                                    
                                                                                                    
                                                                                                    
                                                                                                    
                                                                                                    
                                                                                                    
                                                                                                    
                                                                                                    
                                                                                                    
                                                                                                    
                                                                                                    
                                                                                                    
                                                                                                    
                                                                                                    
                                                                                                    
                                                                                                    
                           
<?xpacket end="w"?></metadata>
<defs>
    <style>
      .cls-1 {
        fill: #007eff;
        fill-rule: evenodd;
      }
    </style>
  </defs>
  <path id="cart" class="cls-1" d="M1075.76,75.96l-0.63-3.725h-2.24a2.98,2.98,0,1,0,0,1.49h0.97l0.38,2.235h-0.02l0.16,0.865v0h0l1.92,9.965,0.78,4.07h0.01l1,5.226a3.837,3.837,0,0,0-3.57,3.335,3.7,3.7,0,0,0,.95,2.875,3.757,3.757,0,0,0,2.78,1.231h1.5a4.5,4.5,0,0,0,8.99,0h8.25a4.5,4.5,0,0,0,9,0h3a0.745,0.745,0,1,0,0-1.49h-3.26a4.5,4.5,0,0,0-8.47,0h-8.78a4.5,4.5,0,0,0-8.47,0h-1.76a2.273,2.273,0,0,1-1.67-.74,2.2,2.2,0,0,1-.57-1.726,2.343,2.343,0,0,1,2.38-2h5.22l8.13,0h0l5.36,0h11.16a3.733,3.733,0,0,0,3.74-3.716V75.951ZM1070,74.47a1.49,1.49,0,1,1,1.5-1.49A1.495,1.495,0,0,1,1070,74.47Zm31.49,26.078a2.981,2.981,0,1,1-3,2.981A2.99,2.99,0,0,1,1101.49,100.548Zm-17.24,0a2.981,2.981,0,1,1-3,2.981A3,3,0,0,1,1084.25,100.548Zm26.25-17.882h-5.26V77.442h5.26v5.226Zm-12.01,13.406V90.863h5.25V96.07Zm0-6.7V84.156h5.25v5.216h-5.25Zm-13.49,6.7V90.862h5.25v5.212H1085Zm0-6.7V84.156h5.25v5.216H1085Zm-7.68-5.216h6.18v5.216h-5.17Zm26.42-1.49h-5.25V77.451h5.25v5.216Zm-6.75,0h-5.25V77.446l5.25,0v5.222Zm-6.74-5.216v5.216H1085V77.451h5.25Zm1.49,6.706h5.25v5.216h-5.25V84.156Zm13.5,0h5.25v5.216h-5.25V84.156Zm-21.74-6.708v5.218h-6.47l-1-5.216Zm-4.89,13.414h4.89v5.213l-3.88,0Zm13.13,0h5.25v5.21h-5.25V90.862Zm16.52,5.206h-3.02V90.862h5.26v2.98A2.233,2.233,0,0,1,1108.26,96.069Z" transform="translate(-1067 -70)"/>
</svg>
