<?xml version="1.0" encoding="utf-8"?>
<!-- Generator: Adobe Illustrator 21.1.0, SVG Export Plug-In . SVG Version: 6.00 Build 0)  -->
<svg version="1.1" id="Слой_1" xmlns="http://www.w3.org/2000/svg" xmlns:xlink="http://www.w3.org/1999/xlink" x="0px" y="0px"
	 viewBox="0 0 265.9 87.8" style="enable-background:new 0 0 265.9 87.8;" xml:space="preserve">
<style type="text/css">
	.st0{font-family:'ArialMT';}
	.st1{font-size:10.9838px;}
	.st2{letter-spacing:1;}
	.st3{fill-rule:evenodd;clip-rule:evenodd;fill:#A9023A;}
	.st4{fill:#005C97;}
	.st5{fill:#A9023A;}
	.st6{fill:#FFFFFF;}
</style>
<text transform="matrix(1 0 0 0.94 151.2517 87.7015)" class="st0 st1 st2">монтажные работы</text>
<rect x="14.1" y="82.2" class="st3" width="121.9" height="5.6"/>
<path class="st4" d="M78.4,13l-0.5-1.8l-3.4,1l1.2-2.7L74,8.7l-1.7,4.1l-1.8,0.5l2.2-5.6l-1.3-0.5l-0.5-1.3l-5.5,2.3l0.5-1.9
	l4.1-1.8L69,2.9l-2.7,1.2l0.9-3.4l-1.8-0.5l-0.9,3.4l-1.8-2.4l-1.5,1.1l2.7,3.6l-0.5,1.9l-3.7-4.7l-1.1,0.9l-1.4-0.2l-0.8,5.9
	L55,8.3l0.5-4.4l-1.8-0.2l-0.3,3l-2.5-2.5l-1.3,1.3L73.2,29l1.3-1.3L72,25.2l3-0.3l-0.2-1.8l-4.4,0.5L69,22.2l5.9-0.8l-0.2-1.5
	l0.9-1.2l-4.7-3.6l1.8-0.5l3.6,2.6l1.1-1.5L75,13.9L78.4,13z M68.7,15.7l5.3,4l-6.6,0.9L63.8,17L68.7,15.7z M70.5,8l-2.4,6l-4.8,1.4
	l1.3-4.9L70.5,8z M62.8,10l-1.3,4.9L58,11.3L58.9,5L62.8,10z"/>
<g>
	<path class="st5" d="M24.3,9.8c-4-4-10.5-4-14.5,0s-4,10.5,0,14.5c0.2,0.2,0.5,0.5,0.8,0.7L25,10.6C24.8,10.3,24.6,10.1,24.3,9.8z"
		/>
	<rect x="4.1" y="26.8" transform="matrix(0.7071 -0.7071 0.7071 0.7071 -17.8305 12.6024)" class="st5" width="4.3" height="2"/>
	<rect x="0.2" y="20" transform="matrix(0.9656 -0.2601 0.2601 0.9656 -5.386 1.3386)" class="st5" width="4.3" height="2"/>
	<rect x="1.3" y="11" transform="matrix(0.2563 -0.9666 0.9666 0.2563 -10.9817 12.0647)" class="st5" width="2" height="4.3"/>
	<rect x="5.2" y="4.2" transform="matrix(0.7043 -0.7099 0.7099 0.7043 -2.6605 6.32)" class="st5" width="2" height="4.3"/>
	<rect x="12" y="0.2" transform="matrix(0.9645 -0.264 0.264 0.9645 -0.1701 3.5266)" class="st5" width="2" height="4.3"/>
	<rect x="18.7" y="1.3" transform="matrix(0.2524 -0.9676 0.9676 0.2524 13.3481 21.9719)" class="st5" width="4.3" height="2"/>
	<rect x="25.6" y="5.2" transform="matrix(0.7015 -0.7127 0.7127 0.7015 3.8395 21.616)" class="st5" width="4.3" height="2"/>
</g>
<polygon class="st5" points="39.9,19.1 14.1,44.4 14.1,77.5 65.6,77.7 65.6,44.4 "/>
<rect x="28.1" y="49.1" class="st6" width="9.5" height="9.4"/>
<rect x="42.2" y="49.1" class="st6" width="9.5" height="9.4"/>
<rect x="28.1" y="63.3" class="st6" width="9.5" height="9.2"/>
<rect x="42.3" y="63.3" class="st6" width="9.4" height="9.2"/>
<g>
	<g>
		<path class="st4" d="M71.8,55.7c-0.4-7.8,3.6-12.2,11.1-12.2c10.6,0,11.7,5.5,11.7,14.5v4.5H79.4v4.8c0.1,4.3,1.7,5.2,4,5.2
			c2.8,0,3.6-2,3.5-6.2h7.6c0.3,7.4-2.8,12.1-10.5,12.1c-8.8,0-12.4-4.2-12.2-13.9V55.7z M87,56.6v-2.9c-0.1-3.3-0.9-4.4-4-4.4
			c-3.8,0-3.6,2.9-3.6,5.9v1.3H87z"/>
	</g>
	<g>
		<path class="st4" d="M106,47.8h0.1c1.7-3.6,4.8-4.2,7.3-4.3c2.8-0.1,6.6,1.2,7,4.3h0.1c1.5-2.9,3.9-4.3,7.6-4.3
			c5.6,0,8.1,3.5,8.1,7v26.9h-7.6V55.1c0-3-0.3-5.9-3.6-5.7c-3.3,0.2-3.9,2.5-3.9,6.3v21.7h-7.6V54.7c0-2.9-0.2-5.4-3.7-5.3
			c-3.6,0.1-3.7,2.7-3.7,6.3v21.7h-7.6v-33h7.6V47.8z"/>
	</g>
	<g>
		<path class="st4" d="M147.7,47.8h0.1c1.4-3.2,3.5-4.4,6.6-4.3c4.9,0.1,7.7,2.8,7.9,11.8v12c-0.2,5.3-1.5,11-7.9,11
			c-3-0.2-5.1-0.9-7-4.3h-0.1v13.7l-7.3,0V44.4h7.6V47.8z M147.7,66.6c0,3.8,1.2,5.9,3.7,5.9c2.3,0,3.2-2.5,3.3-5.7v-11
			c-0.2-3.3,0.1-6.4-3.5-6.4s-3.7,4.7-3.6,7.3V66.6z"/>
	</g>
	<g>
		<path class="st4" d="M165.7,55.7c-0.4-7.8,3.6-12.2,11.1-12.2c10.6,0,11.7,5.5,11.7,14.5v4.5h-15.2v4.8c0.1,4.3,1.7,5.2,4,5.2
			c2.8,0,3.6-2,3.5-6.2h7.6c0.3,7.4-2.8,12.1-10.5,12.1c-8.8,0-12.4-4.2-12.2-13.9V55.7z M181,56.6v-2.9c-0.1-3.3-0.9-4.4-4-4.4
			c-3.8,0-3.6,2.9-3.6,5.9v1.3H181z"/>
	</g>
	<g>
		<path class="st4" d="M199.3,50.2h0.1c0.9-2.4,1.9-3.7,3-4.7c2.2-1.8,3.6-1.7,4.7-1.8v9c-4.2-0.4-7.4,0.6-7.6,5.5v19.1H192v-33h7.3
			V50.2z"/>
	</g>
	<g>
		<path class="st4" d="M209,40.4v-6.9h7.6v6.9H209z M209,77.4v-33h7.6v33H209z"/>
	</g>
	<g>
		<path class="st4" d="M220.3,77.4V33.5h7.6v19.9c0,1.4-0.1,2.8-0.1,4.2h0.1l7.2-13.1h8.3l-8.3,13.3l8.1,19.7h-8.5L230,63.9
			l-2.1,3.4v10.1H220.3z"/>
	</g>
	<g>
		<path class="st4" d="M258.7,77.4c-0.5-1.1-0.6-2.2-0.5-3.4h-0.1c-0.9,1.3-1.9,2.5-3,3.2c-1.1,0.7-2.3,1.1-3.6,1.1
			c-6.2,0-8.8-3.1-8.8-9.9c0-7.6,5.3-9.4,11.3-11.8c3.2-1.3,4.4-2.8,3.7-5.5c-0.4-1.5-1.5-1.7-3.6-1.7c-3.5,0-4,1.8-4,4.8h-7.3
			c-0.1-6.3,2-10.7,11.5-10.7c10.4,0,11,5.4,10.9,9.8v19.5c0,1.6,0.2,3.1,0.6,4.6H258.7z M257.6,60c-1.9,1.3-4.2,2.6-6.2,4.2
			c-1.1,0.9-1.3,2.6-1.3,4c0,2.5,0.8,4.2,3.6,4.2c4.5,0,3.7-5.7,3.9-8.8V60z"/>
	</g>
</g>
<polygon class="st5" points="39.9,2.4 2.2,40.1 6.5,44.4 39.9,12 72.2,44.4 77,39.5 "/>
</svg>
