<svg xmlns="http://www.w3.org/2000/svg" width="479" height="612" viewBox="0 0 479 612">
  <metadata><?xpacket begin="﻿" id="W5M0MpCehiHzreSzNTczkc9d"?>
<x:xmpmeta xmlns:x="adobe:ns:meta/" x:xmptk="Adobe XMP Core 5.6-c138 79.159824, 2016/09/14-01:09:01        ">
   <rdf:RDF xmlns:rdf="http://www.w3.org/1999/02/22-rdf-syntax-ns#">
      <rdf:Description rdf:about=""/>
   </rdf:RDF>
</x:xmpmeta>
                                                                                                    
                                                                                                    
                                                                                                    
                                                                                                    
                                                                                                    
                                                                                                    
                                                                                                    
                                                                                                    
                                                                                                    
                                                                                                    
                                                                                                    
                                                                                                    
                                                                                                    
                                                                                                    
                                                                                                    
                                                                                                    
                                                                                                    
                                                                                                    
                                                                                                    
                                                                                                    
                           
<?xpacket end="w"?></metadata>
<defs>
    <style>
      .cls-1 {
        fill: #007eff;
        fill-rule: evenodd;
      }
    </style>
  </defs>
  <path id="Forma_1" data-name="Forma 1" class="cls-1" d="M418.815,28.805H345.253V0H133.746V28.805H60.185A60.284,60.284,0,0,0,0,89.051v462.7A60.284,60.284,0,0,0,60.185,612h358.63A60.284,60.284,0,0,0,479,551.754V89.05A60.284,60.284,0,0,0,418.815,28.805Zm-260.186-3.9H320.37v32.7H158.629v-32.7ZM454.118,551.752a35.36,35.36,0,0,1-35.3,35.338H60.185a35.36,35.36,0,0,1-35.3-35.338V89.05a35.36,35.36,0,0,1,35.3-35.338h73.561V82.517H345.253v-28.8h73.562a35.361,35.361,0,0,1,35.3,35.338v462.7ZM347.652,281.226L334.713,300.9a6.957,6.957,0,0,1-11.557.1l-0.361-.526a31.827,31.827,0,0,0-55.166,4.588l-6.911,14.915a6.956,6.956,0,0,1-13.057-1.219L232.62,259.411a31.4,31.4,0,0,0-30.851-24.036h-0.178a31.4,31.4,0,0,0-30.779,24.357L157.246,315.7a6.957,6.957,0,0,1-13.145,1.134l-13.374-30.788a31.827,31.827,0,0,0-29.2-19.166H65.662v24.908h35.864a6.952,6.952,0,0,1,6.381,4.19l13.374,30.788a31.832,31.832,0,0,0,60.145-5.194L194.992,265.6a6.957,6.957,0,0,1,13.508-.07l15.04,59.351a31.511,31.511,0,0,0,27.91,23.9c1.035,0.1,2.062.144,3.081,0.144a31.452,31.452,0,0,0,28.76-18.47l6.911-14.915a6.954,6.954,0,0,1,12.055-1l0.36,0.526a31.777,31.777,0,0,0,26.276,13.874h0.287a31.779,31.779,0,0,0,26.312-14.347l12.941-19.676a6.94,6.94,0,0,1,5.811-3.135h39.088V266.875H374.244A31.756,31.756,0,0,0,347.652,281.226ZM65.662,451.3H206.15V476.2H65.662V451.3Zm0,60.886H346.635V537.09H65.662V512.182Z"/>
</svg>
