<svg xmlns="http://www.w3.org/2000/svg" width="512" height="324" viewBox="0 0 512 324">
  <metadata><?xpacket begin="﻿" id="W5M0MpCehiHzreSzNTczkc9d"?>
<x:xmpmeta xmlns:x="adobe:ns:meta/" x:xmptk="Adobe XMP Core 5.6-c138 79.159824, 2016/09/14-01:09:01        ">
   <rdf:RDF xmlns:rdf="http://www.w3.org/1999/02/22-rdf-syntax-ns#">
      <rdf:Description rdf:about=""/>
   </rdf:RDF>
</x:xmpmeta>
                                                                                                    
                                                                                                    
                                                                                                    
                                                                                                    
                                                                                                    
                                                                                                    
                                                                                                    
                                                                                                    
                                                                                                    
                                                                                                    
                                                                                                    
                                                                                                    
                                                                                                    
                                                                                                    
                                                                                                    
                                                                                                    
                                                                                                    
                                                                                                    
                                                                                                    
                                                                                                    
                           
<?xpacket end="w"?></metadata>
<defs>
    <style>
      .cls-1 {
        fill: #007eff;
        fill-rule: evenodd;
      }
    </style>
  </defs>
  <path class="cls-1" d="M476.158,137.355L462.9,84.3a8.021,8.021,0,0,0,6.345-7.842V67.9a33.715,33.715,0,0,0-33.67-33.683H375.182V16.575A16.59,16.59,0,0,0,358.614,0H50.772A16.59,16.59,0,0,0,34.2,16.575V162a8.017,8.017,0,1,0,16.034,0V16.575a0.534,0.534,0,0,1,.534-0.534H358.613a0.534,0.534,0,0,1,.534.534V162a8.017,8.017,0,1,0,16.034,0v-9.091H469.75l0.021,0h0.022a26.235,26.235,0,0,1,24.912,18.178H469.777a8.018,8.018,0,0,0-8.017,8.02V196.22a25.151,25.151,0,0,0,25.119,25.128h9.086v35.287H475a50.75,50.75,0,0,0-95.964,0h-3.86V196.219a8.017,8.017,0,1,0-16.034,0v60.414H192.817a50.75,50.75,0,0,0-95.964,0H50.772a0.534,0.534,0,0,1-.534-0.534V238.455H84.977a8.02,8.02,0,0,0,0-16.04H8.017a8.02,8.02,0,0,0,0,16.04H34.205V256.1a16.59,16.59,0,0,0,16.568,16.575h43.3c0,0.178-.014.355-0.014,0.534a50.772,50.772,0,1,0,101.544,0c0-.18-0.012-0.356-0.014-0.534h180.67c0,0.178-.014.355-0.014,0.534a50.772,50.772,0,1,0,101.544,0c0-.18-0.012-0.356-0.014-0.534h26.2A8.019,8.019,0,0,0,512,264.653V179.109A42.3,42.3,0,0,0,476.158,137.355Zm-100.976-87.1h60.392A17.661,17.661,0,0,1,453.211,67.9v0.534H375.182V50.259Zm0,86.614v-52.4h71.235l13.094,52.4H375.182ZM144.835,307.962a34.753,34.753,0,1,1,34.739-34.752A34.785,34.785,0,0,1,144.835,307.962Zm282.188,0a34.753,34.753,0,1,1,34.739-34.752A34.785,34.785,0,0,1,427.023,307.962Zm68.944-102.654h-9.086a9.1,9.1,0,0,1-9.086-9.089v-9.09h18.171v18.179h0ZM144.835,256.635A16.575,16.575,0,1,0,161.4,273.21,16.59,16.59,0,0,0,144.835,256.635Zm282.188,0a16.575,16.575,0,1,0,16.568,16.575A16.59,16.59,0,0,0,427.023,256.635ZM332.96,222.418H213.244a8.02,8.02,0,0,0,0,16.04H332.96A8.02,8.02,0,0,0,332.96,222.418ZM127.733,188.2H25.119a8.02,8.02,0,0,0,0,16.04H127.733A8.02,8.02,0,0,0,127.733,188.2ZM278.771,79.339a8.014,8.014,0,0,0-11.337,0l-71.292,71.319-37.087-37.1A8.018,8.018,0,0,0,147.718,124.9l42.756,42.773a8.013,8.013,0,0,0,11.336,0l76.96-76.99A8.023,8.023,0,0,0,278.771,79.339Z"/>
</svg>
