<svg xmlns="http://www.w3.org/2000/svg" width="387.656" height="511.656" viewBox="0 0 387.656 511.656">
  <metadata><?xpacket begin="﻿" id="W5M0MpCehiHzreSzNTczkc9d"?>
<x:xmpmeta xmlns:x="adobe:ns:meta/" x:xmptk="Adobe XMP Core 5.6-c138 79.159824, 2016/09/14-01:09:01        ">
   <rdf:RDF xmlns:rdf="http://www.w3.org/1999/02/22-rdf-syntax-ns#">
      <rdf:Description rdf:about=""/>
   </rdf:RDF>
</x:xmpmeta>
                                                                                                    
                                                                                                    
                                                                                                    
                                                                                                    
                                                                                                    
                                                                                                    
                                                                                                    
                                                                                                    
                                                                                                    
                                                                                                    
                                                                                                    
                                                                                                    
                                                                                                    
                                                                                                    
                                                                                                    
                                                                                                    
                                                                                                    
                                                                                                    
                                                                                                    
                                                                                                    
                           
<?xpacket end="w"?></metadata>
<defs>
    <style>
      .cls-1 {
        fill: #007eff;
        fill-rule: evenodd;
      }
    </style>
  </defs>
  <path class="cls-1" d="M259.874,64.1A145.627,145.627,0,0,0,91.018,91.154C39.109,143.014,33.914,225.7,78.934,283.5a8.069,8.069,0,0,0,12.739-9.9c-40.03-51.387-35.4-124.918,10.76-171.038A129.5,129.5,0,0,1,252.6,78.49,8.064,8.064,0,1,0,259.874,64.1Zm64.449,64.4a8.07,8.07,0,0,0-14.41,7.27,129.209,129.209,0,0,1-24.1,150c-46.164,46.119-119.763,50.74-171.2,10.75a8.066,8.066,0,1,0-9.913,12.726A145.792,145.792,0,0,0,324.323,128.5ZM303.47,97.787c-2-2.261-4.1-4.493-6.243-6.633s-4.378-4.24-6.64-6.238A8.067,8.067,0,0,0,279.9,97c2.015,1.779,4.006,3.65,5.916,5.558s3.782,3.9,5.563,5.91A8.067,8.067,0,0,0,303.47,97.787Zm81.148,110.828a27.339,27.339,0,0,0,0-28.6L374,162.622a11.341,11.341,0,0,1-1.521-7.664l3.165-20.09a27.34,27.34,0,0,0-10.985-26.481L348.2,96.429a11.354,11.354,0,0,1-4.355-6.5l-4.792-19.786A27.368,27.368,0,0,0,318.8,49.906L299,45.117a11.36,11.36,0,0,1-6.508-4.351L280.517,24.322a27.383,27.383,0,0,0-26.5-10.976L233.9,16.508a11.372,11.372,0,0,1-7.671-1.52L208.812,4.377a27.407,27.407,0,0,0-28.623,0L162.776,14.985a11.37,11.37,0,0,1-7.672,1.52l-20.11-3.162a27.39,27.39,0,0,0-26.5,10.976L96.521,40.759a11.366,11.366,0,0,1-6.51,4.351L70.207,49.9A27.371,27.371,0,0,0,49.952,70.131L45.159,89.918a11.341,11.341,0,0,1-4.355,6.5l-16.46,11.96a27.337,27.337,0,0,0-10.986,26.478l3.165,20.1A11.338,11.338,0,0,1,15,162.619l-10.62,17.4a27.342,27.342,0,0,0,0,28.6L15,226.011a11.342,11.342,0,0,1,1.522,7.665l-3.165,20.09a27.338,27.338,0,0,0,10.985,26.481L40.8,292.205a11.346,11.346,0,0,1,4.355,6.5l4.792,19.786A27.369,27.369,0,0,0,70.2,338.728l8.27,2L22.5,465.458a8.065,8.065,0,0,0,8.322,11.3l45.034-5.379L101.8,508.549a8.076,8.076,0,0,0,6.618,3.45c0.251,0,.505-0.012.757-0.035a8.071,8.071,0,0,0,6.61-4.728l57.161-127.394,7.243,4.412a27.411,27.411,0,0,0,28.624,0l7.5-4.571,57.232,127.553a8.066,8.066,0,0,0,6.61,4.728c0.253,0.024.506,0.036,0.757,0.036a8.074,8.074,0,0,0,6.618-3.45l25.943-37.166,45.034,5.379a8.065,8.065,0,0,0,8.323-11.3l-56-124.8,7.959-1.923A27.373,27.373,0,0,0,339.047,318.5l4.793-19.787a11.348,11.348,0,0,1,4.355-6.5l16.46-11.96a27.339,27.339,0,0,0,10.986-26.479l-3.165-20.1A11.344,11.344,0,0,1,374,226.014ZM106.885,487.645L86.325,458.19a8.069,8.069,0,0,0-7.578-3.393L43.058,459.06,94.051,345.413a11.3,11.3,0,0,1,2.458,2.453L108.48,364.31a27.825,27.825,0,0,0,3.809,4.24l-26.84,59.816a8.069,8.069,0,0,0,14.728,6.6l26.745-59.6a27.629,27.629,0,0,0,8.061-.073l20.116-3.162a11.334,11.334,0,0,1,3.607.024Zm239.389-28.587-35.69-4.261a8.069,8.069,0,0,0-7.578,3.393l-20.559,29.455L230.6,372.1a11.366,11.366,0,0,1,3.294.024l20.109,3.162a27.648,27.648,0,0,0,8.381.024l26.765,59.652a8.069,8.069,0,0,0,14.728-6.6l-26.942-60.044a27.814,27.814,0,0,0,3.572-4.011l11.969-16.44a11.342,11.342,0,0,1,2.717-2.643Zm24.562-258.84-10.62,17.4a27.475,27.475,0,0,0-3.685,18.565l3.165,20.1a11.287,11.287,0,0,1-4.536,10.93L338.7,279.171a27.492,27.492,0,0,0-10.548,15.75l-4.793,19.787A11.3,11.3,0,0,1,315,323.061l-19.805,4.788a27.517,27.517,0,0,0-15.766,10.539l-11.97,16.44a11.3,11.3,0,0,1-10.942,4.53L236.405,356.2a27.54,27.54,0,0,0-18.586,3.681l-17.412,10.608a11.317,11.317,0,0,1-11.815,0l-17.416-10.609a27.532,27.532,0,0,0-18.584-3.681l-20.116,3.162a11.307,11.307,0,0,1-10.941-4.531l-11.973-16.444A27.519,27.519,0,0,0,93.8,327.844l-19.805-4.789a11.3,11.3,0,0,1-8.361-8.353l-4.792-19.786A27.492,27.492,0,0,0,50.29,279.163L33.836,267.2A11.283,11.283,0,0,1,29.3,256.273l3.165-20.091a27.473,27.473,0,0,0-3.685-18.567l-10.618-17.4a11.286,11.286,0,0,1,0-11.8l10.62-17.4a27.477,27.477,0,0,0,3.685-18.566l-3.165-20.1a11.287,11.287,0,0,1,4.535-10.931L50.3,109.46A27.493,27.493,0,0,0,60.847,93.711l4.793-19.787A11.3,11.3,0,0,1,74,65.57l19.805-4.788a27.514,27.514,0,0,0,15.765-10.539l11.97-16.44a11.3,11.3,0,0,1,10.942-4.531l20.109,3.162a27.532,27.532,0,0,0,18.586-3.682l17.412-10.608a11.319,11.319,0,0,1,11.815,0l17.416,10.609a27.531,27.531,0,0,0,18.584,3.682l20.116-3.162a11.312,11.312,0,0,1,10.941,4.531L279.436,50.25A27.521,27.521,0,0,0,295.2,60.788l19.805,4.789a11.3,11.3,0,0,1,8.362,8.353l4.792,19.786a27.485,27.485,0,0,0,10.549,15.752l16.455,11.958a11.285,11.285,0,0,1,4.535,10.932l-3.165,20.09a27.472,27.472,0,0,0,3.685,18.568l10.618,17.4A11.286,11.286,0,0,1,370.836,200.218Zm-81.894-30.99a14.434,14.434,0,0,0-12.152-9.967l-48.564-5.753-20.484-44.366a14.591,14.591,0,0,0-26.487,0l-20.484,44.367-48.564,5.753a14.567,14.567,0,0,0-8.185,25.164l35.9,33.173L130.4,265.521a14.625,14.625,0,0,0,14.286,17.435,14.606,14.606,0,0,0,7.142-1.883L194.5,257.21l42.673,23.863A14.58,14.58,0,0,0,258.6,265.521L249.068,217.6l35.905-33.173A14.417,14.417,0,0,0,288.942,169.228Zm-54.148,39.6a8.058,8.058,0,0,0-2.437,7.49l9.753,49.039-43.67-24.421a8.079,8.079,0,0,0-7.884,0l-43.67,24.421,9.752-49.039a8.052,8.052,0,0,0-2.436-7.49L117.46,174.877l49.7-5.887a8.072,8.072,0,0,0,6.379-4.629l20.961-45.4,20.96,45.4a8.072,8.072,0,0,0,6.379,4.629l49.7,5.887Z" transform="translate(-0.344 -0.344)"/>
</svg>
