<svg xmlns="http://www.w3.org/2000/svg" width="799" height="800" viewBox="0 0 799 800">
  <metadata><?xpacket begin="﻿" id="W5M0MpCehiHzreSzNTczkc9d"?>
<x:xmpmeta xmlns:x="adobe:ns:meta/" x:xmptk="Adobe XMP Core 5.6-c138 79.159824, 2016/09/14-01:09:01        ">
   <rdf:RDF xmlns:rdf="http://www.w3.org/1999/02/22-rdf-syntax-ns#">
      <rdf:Description rdf:about=""/>
   </rdf:RDF>
</x:xmpmeta>
                                                                                                    
                                                                                                    
                                                                                                    
                                                                                                    
                                                                                                    
                                                                                                    
                                                                                                    
                                                                                                    
                                                                                                    
                                                                                                    
                                                                                                    
                                                                                                    
                                                                                                    
                                                                                                    
                                                                                                    
                                                                                                    
                                                                                                    
                                                                                                    
                                                                                                    
                                                                                                    
                           
<?xpacket end="w"?></metadata>
<defs>
    <style>
      .cls-1 {
        fill: #007eff;
        fill-rule: evenodd;
      }
    </style>
  </defs>
  <path class="cls-1" d="M401,0C180.44,0,1,179.44,1,400S180.44,800,401,800,801,620.56,801,400,621.562,0,401,0Zm0,756.756A356.959,356.959,0,0,1,44.244,400C44.244,203.284,204.284,43.244,401,43.244A356.854,356.854,0,0,1,757.756,400C757.756,596.716,597.716,756.756,401,756.756ZM270.371,267.566a43.244,43.244,0,1,1-43.244,43.244A43.244,43.244,0,0,1,270.371,267.566Zm267.571,0A43.244,43.244,0,1,1,494.7,310.81,43.244,43.244,0,0,1,537.942,267.566ZM400.235,621.616c83.66,0,163.837-42.784,209.743-113.82l-36.322-23.471C531.5,549.556,454.4,585.959,377.186,577.051c-60.168-6.938-115.81-41.6-148.845-92.726L192.021,507.8C232,569.659,299.363,611.605,372.229,620.011A244.268,244.268,0,0,0,400.235,621.616Z" transform="translate(-1)"/>
</svg>
