<?xml version="1.0" standalone="no"?>
<!DOCTYPE svg PUBLIC "-//W3C//DTD SVG 20010904//EN"
 "http://www.w3.org/TR/2001/REC-SVG-20010904/DTD/svg10.dtd">
<svg version="1.0" xmlns="http://www.w3.org/2000/svg"
 width="360.000000pt" height="360.000000pt" viewBox="0 0 360.000000 360.000000"
 preserveAspectRatio="xMidYMid meet">
<metadata>
Created by potrace 1.11, written by Peter Selinger 2001-2013
</metadata>
<g transform="translate(0.000000,360.000000) scale(0.100000,-0.100000)"
fill="#000000" stroke="none">
<path d="M1090 3528 c0 -4 -6 -8 -14 -8 -9 0 -12 -8 -8 -25 9 -49 -19 -103
-31 -57 -4 13 -5 11 -6 -5 0 -13 4 -23 10 -23 6 0 9 -9 6 -20 -3 -11 -1 -23 5
-26 5 -3 7 -12 4 -20 -3 -8 1 -14 9 -14 8 0 15 4 15 8 0 5 14 7 30 4 18 -3 30
0 30 7 0 20 2 26 11 37 5 6 10 23 11 38 1 14 8 26 15 26 7 0 13 9 13 20 0 11
5 20 10 20 6 0 10 3 10 8 0 4 -27 14 -60 23 -33 9 -60 12 -60 7z"/>
<path d="M795 3525 c-5 -2 -22 -6 -37 -9 -27 -6 -27 -8 -14 -61 1 -5 10 -34
20 -62 15 -45 21 -53 42 -53 38 0 65 19 64 43 -4 39 0 47 18 47 13 0 11 5 -12
25 -19 16 -27 31 -23 44 3 14 1 18 -9 14 -8 -3 -14 0 -14 6 0 11 -14 13 -35 6z"/>
<path d="M2843 3513 c-7 -2 -13 -13 -13 -24 0 -10 -7 -19 -15 -19 -19 0 -20
-18 0 -22 9 -2 11 -8 6 -16 -6 -10 -16 -5 -39 19 -24 25 -36 30 -56 25 -15 -4
-26 -2 -26 4 0 5 -11 10 -25 10 -14 0 -25 -4 -25 -10 0 -5 5 -10 11 -10 6 0
17 -7 25 -15 9 -8 12 -15 9 -15 -4 0 0 -11 9 -25 15 -23 15 -25 -5 -36 -17 -9
-23 -8 -30 2 -5 8 -7 19 -5 25 2 6 -7 9 -25 6 -25 -4 -29 -1 -29 19 0 17 -3
20 -9 11 -4 -8 -12 -13 -17 -12 -5 0 -10 -8 -12 -20 -2 -11 -9 -20 -15 -20 -7
0 -23 -3 -36 -7 -22 -6 -23 -4 -17 20 5 20 3 27 -8 27 -7 0 -16 -9 -19 -20 -4
-17 -12 -20 -41 -17 -40 5 -57 -11 -49 -44 3 -11 0 -19 -6 -19 -6 0 -11 -7
-11 -16 0 -9 -6 -14 -12 -11 -7 2 -13 11 -13 21 0 9 -13 23 -29 31 -28 15 -31
14 -58 -12 l-28 -27 20 -21 c22 -24 27 -40 8 -29 -9 5 -8 2 1 -10 11 -13 16
-14 22 -4 10 16 34 -4 34 -30 0 -9 5 -16 12 -15 6 2 15 -6 18 -17 4 -11 13
-20 21 -20 13 0 18 -12 15 -32 0 -5 6 -8 14 -8 14 0 73 -47 99 -79 6 -7 33
-34 60 -60 49 -46 80 -77 160 -161 24 -25 52 -52 64 -59 16 -11 20 -22 16 -40
-4 -18 -3 -22 4 -13 6 10 21 1 60 -36 49 -47 67 -72 40 -56 -10 6 -9 3 0 -8 8
-9 20 -14 27 -12 9 4 17 -6 24 -28 5 -18 10 -25 10 -15 1 9 5 17 10 17 9 0 24
-38 22 -53 -1 -5 2 -6 7 -3 12 7 64 -43 57 -54 -3 -6 0 -7 8 -4 15 5 50 -23
78 -61 14 -20 15 -20 49 -3 19 10 31 18 27 18 -4 0 -3 10 4 21 8 15 8 19 0 15
-6 -4 -11 0 -11 8 0 9 3 15 8 13 9 -3 13 10 6 26 -2 7 2 28 10 47 10 25 11 40
3 57 -10 22 -14 23 -74 17 -54 -6 -63 -4 -63 9 0 19 28 36 56 35 10 0 31 3 47
7 21 6 27 4 27 -10 0 -9 4 -14 10 -10 6 3 6 15 0 30 -7 18 -5 28 6 40 14 13
14 15 0 15 -16 0 -24 20 -8 20 4 0 16 7 27 16 16 12 17 16 6 23 -7 5 -10 14
-7 20 4 6 12 9 17 6 5 -4 12 2 16 12 3 10 17 28 31 40 l25 23 -27 25 c-17 16
-26 32 -22 41 3 8 2 12 -3 9 -5 -3 -12 -1 -15 4 -6 9 50 27 68 22 15 -4 26 21
26 60 0 34 -1 35 -32 33 -18 -2 -48 -6 -66 -10 -29 -6 -32 -4 -29 15 5 31 16
37 32 15 13 -17 14 -17 15 -2 0 23 -46 68 -70 68 -10 0 -21 4 -25 10 -9 15
-35 0 -35 -22 0 -12 -4 -16 -11 -12 -8 5 -10 -1 -5 -19 3 -14 2 -29 -4 -32 -5
-3 -10 -17 -10 -30 0 -24 -23 -55 -42 -55 -5 0 -8 7 -5 15 4 8 2 17 -4 21 -6
4 -4 15 5 30 9 13 16 30 16 39 0 8 5 15 11 15 5 0 8 4 5 9 -4 5 -2 11 3 13 13
4 21 68 9 68 -7 0 -6 5 1 14 9 11 9 16 0 22 -7 4 -15 2 -17 -4 -2 -7 -10 -12
-18 -12 -9 0 -13 4 -9 9 8 14 -23 41 -40 35 -8 -4 -15 -1 -15 6 0 6 -5 8 -10
5 -6 -4 -8 -10 -6 -14 3 -4 -16 -13 -42 -20 -26 -8 -52 -18 -59 -23 -19 -15
-63 -17 -63 -3 0 21 25 35 49 28 18 -4 22 -2 19 8 -6 19 62 50 80 36 9 -7 11
-6 6 7 -3 9 -1 16 6 16 7 0 9 8 5 21 -4 12 -8 29 -10 38 -2 13 -13 16 -55 14
-46 -2 -51 -1 -45 15 4 9 9 34 12 55 l6 37 -39 -1 c-22 0 -45 -3 -51 -6z
m-339 -156 c7 -7 12 -26 11 -42 -2 -17 -3 -38 -4 -47 -1 -20 -27 -24 -33 -5
-2 6 -4 21 -3 32 1 11 2 32 3 48 2 30 7 33 26 14z m244 1 c20 -20 14 -29 -15
-24 -16 2 -31 5 -34 5 -3 1 -6 8 -6 16 0 18 38 20 55 3z m22 -66 c0 -16 -32
-12 -37 5 -3 7 4 11 16 10 12 -1 21 -7 21 -15z m-128 -12 c6 0 9 -3 5 -6 -3
-4 1 -13 9 -21 12 -12 12 -18 2 -31 -9 -10 -9 -13 -1 -9 6 4 23 -3 38 -17 23
-22 24 -25 10 -39 -9 -10 -11 -18 -5 -22 5 -3 10 -1 10 4 0 6 6 11 14 11 15 0
29 -27 21 -41 -3 -4 -14 -41 -24 -80 l-18 -72 -24 28 c-13 16 -32 35 -41 44
-10 8 -18 19 -18 23 0 5 -9 17 -21 29 -18 18 -20 28 -14 63 4 22 7 46 8 53 0
6 6 9 13 6 9 -3 12 2 8 19 -18 74 -18 72 0 65 10 -4 23 -7 28 -7z m-149 -70
c7 -27 -9 -35 -22 -11 -14 26 -14 31 3 31 7 0 16 -9 19 -20z m547 -22 c0 -24
-46 -108 -54 -101 -5 5 -5 -2 -2 -14 5 -17 3 -23 -7 -23 -9 0 -17 4 -19 9 -1
5 -10 2 -18 -7 -13 -14 -12 -15 2 -9 26 9 41 -16 23 -39 -8 -10 -15 -16 -15
-11 0 4 -16 0 -36 -8 -42 -17 -68 -20 -59 -5 4 6 -5 10 -21 10 -24 0 -26 2
-20 33 3 17 7 38 8 45 1 6 10 12 20 12 11 0 16 5 13 10 -4 6 -11 8 -16 5 -5
-4 -9 -2 -9 4 0 17 20 23 35 11 10 -8 15 -8 22 4 5 8 26 15 53 17 54 3 67 8
49 20 -11 7 -9 13 11 29 29 23 40 25 40 8z m-220 -238 c0 -5 -7 -10 -15 -10
-8 0 -15 5 -15 10 0 6 7 10 15 10 8 0 15 -4 15 -10z m400 -51 c33 -23 60 -45
60 -49 0 -4 -9 -10 -21 -13 -14 -4 -18 -10 -13 -19 6 -9 3 -9 -10 1 -17 14
-17 15 3 23 30 11 26 15 -10 10 -20 -3 -34 0 -40 9 -4 8 -13 14 -19 14 -7 0
-18 11 -25 25 -7 14 -16 24 -19 23 -13 -6 -26 -2 -26 7 0 24 62 8 120 -31z
m-189 -30 c16 -11 26 -25 23 -31 -4 -7 -2 -8 5 -4 7 5 20 -1 31 -14 10 -12 22
-21 27 -22 4 0 7 -4 5 -10 -1 -5 2 -7 7 -4 5 3 14 -1 21 -9 7 -8 11 -15 9 -16
-32 -6 -40 -5 -46 4 -5 7 -18 12 -31 13 -17 0 -21 -4 -16 -18 4 -15 0 -18 -25
-18 -25 0 -31 4 -31 21 0 11 7 27 15 35 8 9 15 23 15 32 -1 24 -39 -26 -40
-50 0 -10 -7 -18 -15 -18 -8 0 -15 -7 -15 -16 0 -23 -42 -13 -56 13 -6 13 -13
21 -16 18 -3 -3 -20 8 -37 24 -33 31 -38 62 -11 67 8 2 25 6 38 10 16 5 22 2
22 -10 0 -9 5 -16 10 -16 6 0 10 4 10 9 0 6 22 16 68 30 2 1 17 -8 33 -20z
m19 -229 c8 -5 12 -12 9 -15 -8 -8 -39 5 -39 16 0 11 11 11 30 -1z m139 -139
c7 -5 12 -14 9 -21 -2 -8 -11 -5 -28 9 -17 14 -20 20 -10 21 8 0 21 -4 29 -9z"/>
<path d="M2680 3038 c0 -4 4 -8 9 -8 6 0 12 4 15 8 3 5 -1 9 -9 9 -8 0 -15 -4
-15 -9z"/>
<path d="M2857 3043 c-11 -17 13 -28 26 -13 9 10 9 11 0 6 -6 -3 -13 -1 -15 6
-3 9 -6 9 -11 1z"/>
<path d="M2906 3034 c-4 -9 -4 -19 -1 -22 2 -3 7 3 11 12 4 9 4 19 1 22 -2 3
-7 -3 -11 -12z"/>
<path d="M1240 3481 c0 -6 4 -12 8 -15 5 -3 9 1 9 9 0 8 -4 15 -9 15 -4 0 -8
-4 -8 -9z"/>
<path d="M1846 3473 c-6 -14 -5 -15 5 -6 7 7 10 15 7 18 -3 3 -9 -2 -12 -12z"/>
<path d="M1831 3418 c-8 -9 -19 -14 -24 -11 -6 3 -7 1 -4 -4 7 -11 -42 -49
-56 -45 -5 1 -5 -2 -2 -8 7 -12 -22 -50 -38 -50 -5 0 -7 9 -4 20 3 12 1 18 -5
14 -5 -3 -7 -18 -3 -31 5 -20 3 -24 -9 -20 -10 4 -13 1 -9 -9 5 -13 -7 -18
-34 -15 -7 1 -13 -3 -13 -9 0 -6 5 -8 10 -5 19 11 10 -10 -11 -28 -16 -14 -24
-16 -35 -6 -12 10 -13 9 -8 -4 3 -8 1 -25 -5 -36 -16 -29 -81 -77 -89 -65 -4
6 -15 2 -25 -9 -19 -18 -18 -19 2 -12 27 8 27 -5 0 -28 -16 -14 -24 -16 -35
-6 -12 10 -13 9 -8 -5 8 -22 -23 -69 -42 -62 -9 3 -14 -1 -14 -13 0 -10 -7
-24 -15 -31 -12 -10 -15 -9 -15 5 0 13 -3 15 -13 6 -8 -6 -18 -7 -23 -3 -5 4
-1 -3 9 -15 18 -21 18 -22 -3 -33 -12 -6 -27 -10 -33 -7 -7 3 -13 -6 -14 -21
-1 -27 -21 -45 -41 -37 -7 3 -15 -2 -18 -10 -4 -8 -10 -12 -15 -9 -5 3 -6 -2
-3 -10 4 -10 1 -16 -9 -16 -8 0 -18 -7 -21 -16 -3 -8 -2 -12 4 -9 18 11 10
-10 -10 -28 -21 -18 -45 -23 -36 -8 4 5 -3 7 -14 4 -19 -5 -19 -7 -5 -23 14
-15 13 -18 -3 -33 -22 -20 -36 -22 -26 -4 4 6 -2 4 -13 -5 -11 -10 -27 -18
-35 -18 -12 0 -15 -7 -12 -29 4 -23 -1 -34 -23 -51 -16 -12 -29 -17 -31 -11
-2 6 -10 11 -18 11 -12 0 -12 -4 -2 -20 10 -16 9 -22 -11 -40 -26 -22 -47 -27
-35 -8 4 7 3 8 -4 4 -7 -4 -12 -17 -12 -28 0 -13 -26 -46 -65 -85 -65 -64 -82
-75 -71 -48 8 22 -2 18 -15 -6 -8 -15 -8 -19 0 -15 31 20 3 -17 -54 -72 -53
-50 -71 -61 -91 -58 -23 5 -25 2 -20 -20 5 -19 -1 -33 -31 -65 -20 -22 -42
-37 -49 -35 -8 3 -11 -1 -7 -10 3 -9 -1 -14 -12 -14 -9 0 -14 -4 -11 -9 3 -5
-10 -22 -29 -38 -25 -22 -34 -37 -33 -56 1 -14 4 -24 6 -22 2 2 22 -15 44 -37
29 -29 39 -46 36 -63 -4 -20 -1 -23 23 -20 15 2 33 -2 39 -10 10 -12 20 -8 64
28 28 23 54 46 57 51 4 5 12 5 19 1 8 -5 11 -4 6 3 -12 20 26 52 64 52 19 0
31 4 25 8 -5 4 -10 14 -10 22 0 16 46 66 58 62 4 -1 7 3 7 8 0 6 14 24 30 40
32 31 46 39 34 18 -6 -10 -4 -10 8 0 8 7 24 10 34 6 18 -5 18 -5 1 6 -9 6 -15
16 -12 21 4 5 11 6 17 3 6 -4 8 -2 4 4 -8 13 52 74 66 66 6 -4 9 -1 6 7 -2 7
6 23 19 35 13 12 23 26 23 32 0 21 33 31 46 14 9 -13 12 -10 18 20 6 36 36 62
36 33 0 -8 5 -15 10 -15 6 0 10 7 10 15 0 8 5 15 10 15 6 0 10 9 10 20 0 14 7
20 21 20 18 0 19 3 9 15 -14 17 -5 35 16 35 8 0 13 4 10 8 -3 4 11 17 30 27
30 16 37 17 45 4 9 -15 12 -7 9 28 -1 13 7 27 19 35 12 7 21 19 21 26 0 7 5
10 10 7 6 -3 10 3 10 14 0 24 10 27 28 9 9 -9 12 -7 12 10 0 13 7 25 15 28 8
4 12 10 9 15 -3 5 2 9 10 9 8 0 20 8 25 19 6 10 21 21 35 25 17 4 23 11 19 24
-2 10 3 25 12 32 14 12 18 12 26 -1 7 -11 9 -9 9 9 0 13 6 22 15 22 8 0 15 5
15 11 0 16 88 99 105 99 8 0 15 5 15 11 0 5 -4 7 -10 4 -5 -3 -10 -1 -10 4 0
12 11 14 47 12 11 -1 24 3 28 8 3 6 1 11 -4 11 -19 0 -7 22 30 57 39 35 49 40
49 22 0 -13 42 -52 83 -77 15 -9 25 -22 22 -30 -2 -7 0 -10 5 -7 12 7 49 -33
50 -53 0 -13 26 -45 32 -40 7 7 49 -32 44 -40 -3 -6 1 -13 10 -16 8 -3 12 -2
9 4 -9 14 4 12 18 -2 26 -28 47 -69 41 -80 -4 -6 -3 -8 4 -5 15 10 44 -4 38
-18 -2 -7 3 -12 11 -11 9 0 18 -5 21 -13 3 -11 -2 -12 -24 -8 -16 3 -23 4 -16
1 6 -3 12 -13 12 -21 0 -14 2 -14 18 -1 9 8 24 13 32 11 21 -5 73 -81 64 -95
-4 -6 -3 -8 4 -5 16 10 44 -4 38 -19 -3 -7 0 -16 6 -20 7 -4 8 -3 4 4 -4 7 -3
12 3 12 14 0 28 -30 25 -57 -2 -29 4 -29 15 -2 7 22 8 22 32 -5 13 -15 35 -39
48 -53 13 -14 24 -33 26 -42 1 -9 4 -14 6 -11 8 10 69 -42 63 -52 -4 -7 -2 -8
4 -4 6 4 19 -3 29 -15 10 -11 30 -35 45 -51 16 -17 25 -35 21 -41 -3 -6 -1 -7
6 -3 12 8 44 -18 34 -28 -4 -3 -2 -6 4 -6 12 0 39 -59 35 -75 -1 -5 5 -1 13 9
15 19 15 19 29 1 10 -14 11 -26 5 -44 -9 -21 -8 -22 6 -11 13 11 21 10 45 -8
16 -12 34 -22 40 -22 14 0 13 -17 -2 -22 -9 -3 -9 -6 0 -12 7 -4 12 -2 12 3 0
7 7 7 20 -1 11 -7 20 -18 20 -25 0 -6 10 -20 23 -30 13 -10 26 -26 30 -35 3
-10 11 -18 17 -18 6 0 8 -5 4 -12 -4 -6 -3 -8 4 -5 15 10 44 -3 39 -17 -3 -7
6 -13 19 -14 13 -1 29 -3 35 -4 7 -2 19 9 26 24 8 15 40 54 73 87 33 33 60 67
60 75 0 9 -13 30 -30 47 -16 18 -27 36 -24 41 3 4 2 7 -3 6 -14 -4 -88 61
-137 122 -16 19 -34 35 -40 35 -6 0 -10 8 -10 18 1 9 -1 15 -5 12 -14 -8 -84
62 -76 75 5 8 4 11 -2 7 -14 -9 -65 42 -56 56 3 5 1 7 -5 4 -11 -8 -84 58 -75
67 4 3 1 6 -5 6 -18 0 -212 202 -205 213 3 6 1 7 -5 3 -20 -12 -90 74 -77 94
5 9 -14 15 -37 11 -4 0 -44 38 -91 84 -46 47 -80 85 -75 85 4 0 8 5 8 11 0 6
-6 9 -14 6 -18 -7 -80 48 -72 62 5 7 1 8 -9 5 -9 -4 -15 -2 -13 4 2 6 -11 21
-29 34 -45 34 -124 124 -115 132 4 4 2 6 -3 4 -6 -2 -26 10 -44 25 -31 26 -33
30 -22 55 l11 27 -18 -22 -19 -21 -29 35 c-16 20 -28 40 -26 45 1 5 -1 7 -6 4
-10 -6 -75 51 -69 61 10 17 -37 8 -52 -9z"/>
<path d="M657 3396 c-4 -10 -5 -21 -2 -24 9 -9 17 6 13 25 -3 17 -4 17 -11 -1z"/>
<path d="M905 3400 c-3 -5 3 -10 14 -10 12 0 21 5 21 10 0 6 -6 10 -14 10 -8
0 -18 -4 -21 -10z"/>
<path d="M1201 3394 c0 -11 3 -14 6 -6 3 7 2 16 -1 19 -3 4 -6 -2 -5 -13z"/>
<path d="M990 3380 c0 -5 5 -10 10 -10 6 0 10 5 10 10 0 6 -4 10 -10 10 -5 0
-10 -4 -10 -10z"/>
<path d="M496 3364 c-4 -10 -12 -14 -23 -10 -10 4 -14 4 -10 0 4 -4 0 -18 -8
-30 -14 -21 -12 -24 30 -60 34 -28 42 -40 34 -50 -8 -10 -6 -12 9 -9 12 2 23
-3 26 -11 5 -14 8 -13 22 1 13 13 19 13 32 3 14 -11 15 -10 9 6 -4 10 -3 24 3
31 12 14 3 45 -12 45 -11 0 -53 50 -53 62 0 5 -3 7 -6 6 -4 -2 -16 5 -27 15
-18 16 -20 16 -26 1z"/>
<path d="M1384 3359 c-9 -10 -23 -19 -31 -19 -8 0 -11 -4 -8 -10 3 -5 -1 -10
-9 -10 -10 0 -13 -6 -9 -17 5 -12 2 -15 -10 -10 -11 4 -17 1 -17 -8 0 -8 -5
-15 -12 -15 -6 0 -1 -11 11 -24 14 -15 20 -30 15 -38 -4 -7 -4 -10 1 -6 4 4
16 3 26 -2 12 -7 20 -7 24 0 4 6 11 8 16 4 6 -3 9 1 7 9 -3 14 27 47 69 76 27
18 20 41 -21 68 -34 22 -34 22 -52 2z"/>
<path d="M596 3352 c-3 -5 1 -9 9 -9 8 0 12 4 9 9 -3 4 -7 8 -9 8 -2 0 -6 -4
-9 -8z"/>
<path d="M1309 3338 c-12 -23 -12 -23 10 -4 23 21 26 26 11 26 -5 0 -15 -10
-21 -22z"/>
<path d="M3067 3349 c7 -7 15 -10 18 -7 3 3 -2 9 -12 12 -14 6 -15 5 -6 -5z"/>
<path d="M580 3326 c0 -4 7 -14 15 -22 8 -9 15 -11 15 -6 0 5 -7 15 -15 22 -8
7 -15 9 -15 6z"/>
<path d="M1150 3320 c0 -5 5 -10 10 -10 6 0 10 5 10 10 0 6 -4 10 -10 10 -5 0
-10 -4 -10 -10z"/>
<path d="M1266 3315 c4 -8 8 -15 10 -15 2 0 4 7 4 15 0 8 -4 15 -10 15 -5 0
-7 -7 -4 -15z"/>
<path d="M1493 3303 c0 -7 4 -13 7 -13 4 0 12 6 18 13 8 10 6 13 -7 13 -10 0
-18 -6 -18 -13z"/>
<path d="M949 3298 c-1 -7 -1 -16 0 -20 1 -8 -33 -12 -83 -8 -17 1 -26 -2 -22
-8 8 -13 -49 -26 -65 -16 -8 4 -9 3 -5 -4 4 -7 3 -12 -3 -12 -6 0 -24 -14 -42
-31 -18 -17 -37 -28 -46 -25 -8 3 -11 1 -8 -4 3 -6 1 -10 -4 -10 -6 0 -11 -9
-11 -21 0 -15 -5 -19 -15 -15 -8 3 -14 2 -13 -2 4 -13 -23 -53 -32 -47 -4 3
-6 -3 -3 -13 2 -11 -3 -26 -12 -35 -9 -9 -14 -21 -11 -26 4 -5 0 -15 -7 -23
-9 -9 -14 -42 -14 -103 0 -53 -5 -101 -13 -114 -10 -19 -10 -25 1 -32 8 -5 17
-9 22 -9 4 0 7 -7 7 -16 0 -8 6 -21 13 -29 32 -33 47 -56 47 -71 0 -8 4 -13 9
-10 10 7 34 -18 25 -26 -3 -3 7 -9 22 -12 17 -5 30 -3 34 5 5 6 13 8 20 4 9
-5 11 -4 6 4 -4 6 -1 18 8 26 19 19 26 19 26 0 0 -8 4 -15 10 -15 5 0 7 7 4
15 -4 8 0 22 7 31 12 14 14 14 26 -2 12 -16 13 -15 13 10 0 36 53 99 69 83 8
-8 11 -8 11 2 0 7 4 10 8 7 4 -2 9 4 9 15 1 10 -4 19 -10 20 -7 0 2 7 18 14
19 8 32 9 36 3 4 -5 9 -2 12 7 5 10 3 14 -4 9 -7 -4 -10 -1 -7 7 3 8 14 14 26
14 12 0 21 5 21 10 -1 6 -6 9 -12 7 -6 -2 -3 6 8 18 10 11 26 20 34 19 34 -3
39 1 36 31 -3 23 1 33 18 42 12 7 26 11 30 10 5 -2 7 3 5 10 -3 7 2 18 11 24
12 9 18 8 29 -5 11 -14 12 -13 3 5 -8 17 -5 26 21 53 17 17 27 31 23 31 -4 0
3 8 15 18 27 22 21 53 -15 72 -13 7 -22 16 -20 20 2 4 -14 17 -37 30 -38 21
-40 24 -23 37 22 16 12 17 -16 2 -12 -6 -28 -7 -37 -3 -9 4 -22 8 -28 9 -33 7
-54 17 -54 26 0 5 -7 9 -15 9 -8 0 -15 5 -15 10 0 15 -40 12 -41 -2z"/>
<path d="M1562 3260 c0 -19 2 -27 5 -17 2 9 2 25 0 35 -3 9 -5 1 -5 -18z"/>
<path d="M1260 3246 c0 -2 7 -9 15 -16 9 -7 15 -8 15 -2 0 5 -7 12 -15 16 -8
3 -15 4 -15 2z"/>
<path d="M1494 3192 c4 -3 14 -7 22 -8 9 -1 13 0 10 4 -4 3 -14 7 -22 8 -9 1
-13 0 -10 -4z"/>
<path d="M2272 3130 c-7 -11 -9 -20 -4 -20 4 0 13 9 20 20 7 11 9 20 4 20 -4
0 -13 -9 -20 -20z"/>
<path d="M300 3055 c-13 -34 -13 -75 1 -75 5 0 7 -6 3 -12 -6 -10 -4 -10 8 0
13 10 19 10 32 -3 9 -9 20 -14 25 -10 5 3 27 1 49 -3 l39 -9 21 48 c11 27 17
48 13 47 -27 -3 -51 4 -51 17 0 8 -4 15 -10 15 -5 0 -10 -5 -10 -11 0 -5 -5
-7 -11 -4 -5 4 -20 8 -32 10 -12 2 -32 7 -44 10 -18 6 -25 2 -33 -20z"/>
<path d="M2319 3023 c-13 -16 -12 -17 4 -4 9 7 17 15 17 17 0 8 -8 3 -21 -13z"/>
<path d="M1820 2985 c-8 -9 -8 -15 -2 -15 12 0 26 19 19 26 -2 2 -10 -2 -17
-11z"/>
<path d="M2460 2945 c0 -8 7 -15 15 -15 8 0 15 7 15 15 0 8 -7 15 -15 15 -8 0
-15 -7 -15 -15z"/>
<path d="M1900 2930 c-13 -8 -12 -10 3 -10 9 0 17 5 17 10 0 12 -1 12 -20 0z"/>
<path d="M417 2844 c-6 -6 16 -34 27 -34 3 0 6 9 6 20 0 19 -20 27 -33 14z"/>
<path d="M1730 2840 c0 -5 5 -10 10 -10 6 0 10 5 10 10 0 6 -4 10 -10 10 -5 0
-10 -4 -10 -10z"/>
<path d="M2620 2822 c0 -2 6 -10 14 -17 12 -12 15 -12 18 3 4 12 -1 18 -13 18
-11 0 -19 -2 -19 -4z"/>
<path d="M1766 2805 c-4 -10 1 -15 16 -15 17 0 18 2 8 15 -7 8 -14 15 -15 15
-2 0 -5 -7 -9 -15z"/>
<path d="M1850 2796 c0 -8 -16 -28 -35 -45 -19 -17 -35 -35 -35 -41 0 -6 -4
-8 -10 -5 -5 3 -10 1 -10 -4 0 -6 -7 -11 -15 -11 -8 0 -15 5 -15 12 0 6 -3 8
-6 5 -4 -4 -2 -12 4 -19 7 -9 6 -18 -4 -32 -11 -16 -16 -17 -29 -6 -12 10 -15
10 -15 -4 0 -10 -4 -15 -9 -12 -5 4 -7 -2 -4 -12 2 -10 -5 -26 -17 -37 -18
-16 -23 -17 -30 -5 -8 13 -10 13 -11 0 -1 -8 -2 -22 -3 -30 0 -8 -9 -14 -18
-14 -10 1 -15 -3 -12 -8 10 -16 -37 -59 -58 -52 -13 4 -16 1 -12 -11 8 -20
-71 -100 -88 -89 -7 4 -8 3 -4 -5 5 -7 -1 -20 -15 -32 -18 -15 -25 -17 -37 -6
-13 9 -14 9 -8 0 4 -8 2 -13 -6 -13 -10 0 -10 -2 1 -9 11 -7 9 -14 -14 -35
-15 -14 -32 -23 -37 -20 -4 3 -7 0 -6 -8 2 -7 -3 -12 -9 -10 -7 1 -13 -2 -13
-7 0 -15 -46 -61 -53 -54 -4 3 -7 1 -7 -6 0 -21 -81 -100 -97 -94 -8 3 -13 0
-11 -8 2 -8 -5 -13 -15 -13 -13 2 -15 -1 -7 -11 12 -14 -19 -48 -41 -43 -7 2
-13 -4 -14 -13 0 -19 -41 -62 -67 -72 -10 -3 -18 -12 -18 -20 0 -19 -46 -60
-59 -53 -7 4 -9 1 -5 -8 3 -9 -2 -17 -15 -21 -11 -3 -21 -16 -23 -28 -2 -12
-1 -310 2 -662 l5 -640 1023 -3 1022 -4 1 29 c3 86 -5 666 -11 808 0 6 1 26 3
45 2 19 -1 41 -6 48 -6 8 -5 12 3 12 8 0 9 4 3 13 -11 14 -11 27 0 45 5 7 4
12 -2 12 -7 0 -7 9 0 28 13 32 18 242 7 242 -4 0 -8 6 -8 14 0 7 -7 19 -15 26
-8 7 -12 17 -8 23 4 6 0 8 -9 4 -12 -4 -15 0 -13 19 2 22 -9 30 -38 25 -5 -1
-6 2 -3 7 2 4 -9 14 -25 21 -16 7 -29 18 -29 24 0 7 -9 18 -20 25 -25 15 -26
29 -2 35 15 4 15 5 0 6 -9 0 -19 -3 -22 -8 -10 -15 -390 365 -383 383 4 10 1
13 -7 10 -8 -3 -26 7 -42 21 -16 15 -23 23 -15 19 9 -5 12 -3 7 4 -4 7 -13 12
-20 12 -17 0 -287 266 -279 274 4 3 1 6 -5 6 -18 0 -82 66 -82 84 0 9 -4 16
-10 16 -5 0 -10 -6 -10 -14z m-96 -1348 c8 -206 7 -215 -10 -215 -8 0 -14 4
-14 9 0 4 -76 8 -170 8 l-169 0 0 175 0 175 179 0 178 0 6 -152z m562 -29 c-2
-99 -8 -184 -12 -187 -4 -4 -4 -2 -1 4 4 6 -2 19 -12 28 -17 16 -18 15 -14 -7
4 -21 1 -24 -21 -24 -14 0 -26 3 -26 8 0 5 -40 9 -90 9 -56 0 -90 -4 -90 -10
0 -7 -19 -10 -46 -9 -50 3 -65 19 -46 50 8 12 12 70 12 157 0 94 4 142 12 150
8 8 62 12 175 12 l163 0 -4 -181z m-563 -401 c8 -36 9 -217 1 -230 -4 -7 -8
-26 -8 -43 l-1 -30 -177 -1 -177 -1 0 111 c-1 61 5 135 11 164 l13 52 166 0
c165 0 167 0 172 -22z m541 16 c14 -5 16 -30 15 -173 0 -159 -1 -167 -20 -168
-11 -1 -17 2 -14 8 4 5 -38 10 -104 10 -61 1 -125 2 -143 3 -17 0 -37 -5 -45
-12 -17 -18 -38 -5 -22 14 8 10 8 14 0 14 -6 0 -11 14 -11 30 0 17 5 30 10 30
6 0 10 33 10 80 0 47 -4 80 -10 80 -5 0 -10 20 -10 45 l0 45 164 0 c90 0 171
-3 180 -6z"/>
<path d="M2230 1270 c0 -5 5 -10 11 -10 5 0 7 5 4 10 -3 6 -8 10 -11 10 -2 0
-4 -4 -4 -10z"/>
<path d="M1963 976 c0 -8 6 -12 14 -9 7 3 13 9 13 14 0 5 -6 9 -13 9 -8 0 -14
-6 -14 -14z"/>
<path d="M1932 2768 c6 -18 28 -21 28 -4 0 9 -7 16 -16 16 -9 0 -14 -5 -12
-12z"/>
<path d="M3321 2764 c0 -11 3 -14 6 -6 3 7 2 16 -1 19 -3 4 -6 -2 -5 -13z"/>
<path d="M381 2754 c-33 -10 -48 -11 -58 -3 -12 11 -17 5 -14 -13 0 -5 -4 -8
-10 -8 -10 0 -9 -29 3 -82 5 -21 18 -36 18 -20 0 17 36 15 54 -3 13 -13 15
-13 18 7 2 18 9 23 33 23 49 0 65 40 40 98 -8 20 -24 20 -84 1z"/>
<path d="M2095 2750 c3 -5 11 -10 16 -10 6 0 7 5 4 10 -3 6 -11 10 -16 10 -6
0 -7 -4 -4 -10z"/>
<path d="M2048 2726 c-3 -17 -1 -23 8 -19 17 6 25 43 9 43 -7 0 -15 -11 -17
-24z"/>
<path d="M1557 2729 c7 -7 15 -10 18 -7 3 3 -2 9 -12 12 -14 6 -15 5 -6 -5z"/>
<path d="M860 2676 c0 -2 7 -7 16 -10 8 -3 12 -2 9 4 -6 10 -25 14 -25 6z"/>
<path d="M2780 2664 c0 -3 7 -12 15 -20 13 -14 15 -13 15 5 0 12 -6 21 -15 21
-8 0 -15 -3 -15 -6z"/>
<path d="M1480 2650 c0 -5 5 -10 10 -10 6 0 10 5 10 10 0 6 -4 10 -10 10 -5 0
-10 -4 -10 -10z"/>
<path d="M1637 2619 c7 -7 15 -10 18 -7 3 3 -2 9 -12 12 -14 6 -15 5 -6 -5z"/>
<path d="M817 2558 c-2 -7 -1 -22 4 -33 6 -16 8 -14 8 13 1 33 -4 41 -12 20z"/>
<path d="M780 2550 c0 -5 5 -10 11 -10 5 0 7 5 4 10 -3 6 -8 10 -11 10 -2 0
-4 -4 -4 -10z"/>
<path d="M1420 2552 c0 -4 9 -15 20 -25 24 -20 27 -6 4 17 -17 18 -24 20 -24
8z"/>
<path d="M534 2518 c-3 -5 -12 -7 -20 -4 -17 7 -19 -10 -1 -18 16 -6 -22 -38
-39 -32 -7 3 -11 -3 -9 -12 1 -9 -4 -25 -13 -34 -8 -10 -10 -18 -4 -18 6 0 14
-9 17 -20 3 -11 14 -24 24 -29 20 -11 64 -3 56 9 -9 15 17 23 27 9 7 -10 8 -4
4 18 -5 32 13 51 37 36 6 -4 8 0 4 11 -4 10 -1 19 8 22 12 5 10 10 -8 25 -15
12 -17 18 -8 19 15 0 6 14 -10 16 -5 1 -10 3 -11 4 -8 8 -49 6 -54 -2z m16 -8
c0 -5 -5 -10 -11 -10 -5 0 -7 5 -4 10 3 6 8 10 11 10 2 0 4 -4 4 -10z"/>
<path d="M3000 2460 c0 -5 6 -10 14 -10 8 0 18 5 21 10 3 6 -3 10 -14 10 -12
0 -21 -4 -21 -10z"/>
<path d="M3240 2461 c0 -5 7 -11 15 -15 9 -3 15 0 15 9 0 8 -7 15 -15 15 -8 0
-15 -4 -15 -9z"/>
<path d="M1266 2435 c4 -8 8 -15 10 -15 2 0 4 7 4 15 0 8 -4 15 -10 15 -5 0
-7 -7 -4 -15z"/>
<path d="M1245 2410 c3 -5 8 -10 11 -10 2 0 4 5 4 10 0 6 -5 10 -11 10 -5 0
-7 -4 -4 -10z"/>
<path d="M3006 2347 c3 -10 9 -15 12 -12 3 3 0 11 -7 18 -10 9 -11 8 -5 -6z"/>
<path d="M1247 2321 c-3 -14 -1 -18 9 -14 16 6 18 19 5 27 -5 3 -11 -3 -14
-13z"/>
<path d="M2511 2278 c-1 -20 14 -24 25 -6 4 6 3 8 -4 4 -5 -3 -13 0 -15 6 -3
8 -6 6 -6 -4z"/>
<path d="M1060 2269 c0 -5 5 -7 10 -4 6 3 10 8 10 11 0 2 -4 4 -10 4 -5 0 -10
-5 -10 -11z"/>
<path d="M2621 2171 c-7 -5 -11 -15 -9 -22 3 -10 8 -7 17 9 13 24 12 26 -8 13z"/>
<path d="M1030 2160 c0 -5 7 -10 15 -10 8 0 15 5 15 10 0 6 -7 10 -15 10 -8 0
-15 -4 -15 -10z"/>
<path d="M940 1991 c0 -5 5 -13 10 -16 6 -3 10 -2 10 4 0 5 -4 13 -10 16 -5 3
-10 2 -10 -4z"/>
<path d="M2764 1945 c3 -21 16 -31 16 -12 0 9 -4 18 -9 21 -5 4 -8 -1 -7 -9z"/>
<path d="M351 1934 c0 -11 3 -14 6 -6 3 7 2 16 -1 19 -3 4 -6 -2 -5 -13z"/>
<path d="M830 1940 c0 -5 5 -10 11 -10 5 0 7 5 4 10 -3 6 -8 10 -11 10 -2 0
-4 -4 -4 -10z"/>
<path d="M393 1865 c0 -8 4 -15 9 -15 4 0 8 4 8 9 0 6 -4 12 -8 15 -5 3 -9 -1
-9 -9z"/>
<path d="M3230 1865 c0 -3 7 -14 16 -23 15 -14 16 -14 13 3 -4 17 -29 35 -29
20z"/>
<path d="M3270 1820 c0 -5 5 -10 10 -10 6 0 10 5 10 10 0 6 -4 10 -10 10 -5 0
-10 -4 -10 -10z"/>
<path d="M3026 1805 c-9 -26 -7 -32 5 -12 6 10 9 21 6 23 -2 3 -7 -2 -11 -11z"/>
<path d="M3046 1781 c-3 -5 1 -11 9 -14 9 -4 12 -1 8 9 -6 16 -10 17 -17 5z"/>
<path d="M1750 320 c0 -7 -150 -10 -460 -9 -254 1 -464 -2 -468 -6 -4 -5 -1
-5 6 -1 10 6 13 1 11 -20 -1 -16 -1 -68 -1 -116 2 -87 2 -88 27 -88 16 0 25
-6 25 -15 0 -8 3 -15 6 -15 3 0 12 7 20 15 14 13 139 15 1007 15 l992 0 -3 87
c-2 49 -3 102 -3 119 l0 31 -510 -4 c-338 -2 -509 0 -509 7 0 6 -30 10 -70 10
-41 0 -70 -4 -70 -10z"/>
</g>
</svg>
